<?xml version="1.0" encoding="UTF-8" standalone="no"?>
<!DOCTYPE svg PUBLIC "-//W3C//DTD SVG 1.1//EN"
 "http://www.w3.org/Graphics/SVG/1.1/DTD/svg11.dtd">
<!-- Generated by graphviz version 2.30.1 (20130214.1330)
 -->
<!-- Title: G Pages: 1 -->
<svg width="866pt" height="1104pt"
 viewBox="0.00 0.00 866.00 1104.00" xmlns="http://www.w3.org/2000/svg" xmlns:xlink="http://www.w3.org/1999/xlink">
<g id="graph0" class="graph" transform="scale(1 1) rotate(0) translate(4 1100)">
<title>G</title>
<polygon fill="white" stroke="white" points="-4,5 -4,-1100 863,-1100 863,5 -4,5"/>
<g id="clust1" class="cluster"><title>cluster_global</title>
<path fill="none" stroke="gray" d="M20,-44C20,-44 838,-44 838,-44 844,-44 850,-50 850,-56 850,-56 850,-1076 850,-1076 850,-1082 844,-1088 838,-1088 838,-1088 20,-1088 20,-1088 14,-1088 8,-1082 8,-1076 8,-1076 8,-56 8,-56 8,-50 14,-44 20,-44"/>
<text text-anchor="middle" x="429" y="-1075.2" font-family="Times New Roman,serif" font-size="11.00" fill="gray">global</text>
</g>
<!-- \\LudoDB -->
<g id="node1" class="node"><title>\\LudoDB</title>
<g id="a_node1"><a xlink:href="LudoDB.html" xlink:title="LudoDB" target="_parent">
<polygon fill="none" stroke="black" points="469.5,-898 412.5,-898 412.5,-862 469.5,-862 469.5,-898"/>
<text text-anchor="middle" x="441" y="-877.2" font-family="Courier,monospace" font-size="11.00">LudoDB</text>
</a>
</g>
</g>
<!-- \\LudoDBCache -->
<g id="node2" class="node"><title>\\LudoDBCache</title>
<g id="a_node2"><a xlink:href="LudoDBCache.html" xlink:title="LudoDBCache" target="_parent">
<polygon fill="none" stroke="black" points="486.5,-1060 395.5,-1060 395.5,-1024 486.5,-1024 486.5,-1060"/>
<text text-anchor="middle" x="441" y="-1039.2" font-family="Courier,monospace" font-size="11.00">LudoDBCache</text>
</a>
</g>
</g>
<!-- \\LudoDBModel -->
<g id="node18" class="node"><title>\\LudoDBModel</title>
<g id="a_node18"><a xlink:href="LudoDBModel.html" xlink:title="«abstract»&lt;br/&gt;LudoDBModel" target="_parent">
<polygon fill="none" stroke="black" points="290,-1033 198,-1033 198,-997 290,-997 290,-1033"/>
<text text-anchor="start" x="210" y="-1018.7" font-family="Courier,monospace" font-size="11.00">«abstract»</text>
<text text-anchor="start" x="206.5" y="-1007.7" font-family="Courier,monospace" font-size="11.00">LudoDBModel</text>
</a>
</g>
</g>
<!-- \\LudoDBCache&#45;&gt;\\LudoDBModel -->
<g id="edge1" class="edge"><title>\\LudoDBCache&#45;&gt;\\LudoDBModel</title>
<path fill="none" stroke="black" d="M395.263,-1035.81C366.977,-1031.89 330.212,-1026.8 300.128,-1022.63"/>
<polygon fill="none" stroke="black" points="300.59,-1019.16 290.204,-1021.26 299.629,-1026.1 300.59,-1019.16"/>
</g>
<!-- \\LudoDBCollection -->
<g id="node3" class="node"><title>\\LudoDBCollection</title>
<g id="a_node3"><a xlink:href="LudoDBCollection.html" xlink:title="«abstract»&lt;br/&gt;LudoDBCollection" target="_parent">
<polygon fill="none" stroke="black" points="504,-952 378,-952 378,-916 504,-916 504,-952"/>
<text text-anchor="start" x="407" y="-937.7" font-family="Courier,monospace" font-size="11.00">«abstract»</text>
<text text-anchor="start" x="386.5" y="-926.7" font-family="Courier,monospace" font-size="11.00">LudoDBCollection</text>
</a>
</g>
</g>
<!-- \\LudoDBIterator -->
<g id="node17" class="node"><title>\\LudoDBIterator</title>
<g id="a_node17"><a xlink:href="LudoDBIterator.html" xlink:title="LudoDBIterator" target="_parent">
<polygon fill="none" stroke="black" points="299.5,-952 188.5,-952 188.5,-916 299.5,-916 299.5,-952"/>
<text text-anchor="middle" x="244" y="-931.2" font-family="Courier,monospace" font-size="11.00">LudoDBIterator</text>
</a>
</g>
</g>
<!-- \\LudoDBCollection&#45;&gt;\\LudoDBIterator -->
<g id="edge2" class="edge"><title>\\LudoDBCollection&#45;&gt;\\LudoDBIterator</title>
<path fill="none" stroke="black" d="M377.765,-934C356.115,-934 331.784,-934 309.922,-934"/>
<polygon fill="none" stroke="black" points="309.741,-930.5 299.741,-934 309.741,-937.5 309.741,-930.5"/>
</g>
<!-- \\LudoDBCollectionConfigParser -->
<g id="node4" class="node"><title>\\LudoDBCollectionConfigParser</title>
<g id="a_node4"><a xlink:href="LudoDBCollectionConfigParser.html" xlink:title="LudoDBCollectionConfigParser" target="_parent">
<polygon fill="none" stroke="black" points="815,-1060 609,-1060 609,-1024 815,-1024 815,-1060"/>
<text text-anchor="middle" x="712" y="-1039.2" font-family="Courier,monospace" font-size="11.00">LudoDBCollectionConfigParser</text>
</a>
</g>
</g>
<!-- \\LudoDBConfigParser -->
<g id="node5" class="node"><title>\\LudoDBConfigParser</title>
<g id="a_node5"><a xlink:href="LudoDBConfigParser.html" xlink:title="LudoDBConfigParser" target="_parent">
<polygon fill="none" stroke="black" points="510,-1006 372,-1006 372,-970 510,-970 510,-1006"/>
<text text-anchor="middle" x="441" y="-985.2" font-family="Courier,monospace" font-size="11.00">LudoDBConfigParser</text>
</a>
</g>
</g>
<!-- \\LudoDBCollectionConfigParser&#45;&gt;\\LudoDBConfigParser -->
<g id="edge3" class="edge"><title>\\LudoDBCollectionConfigParser&#45;&gt;\\LudoDBConfigParser</title>
<path fill="none" stroke="black" d="M621.053,-1023.94C588.39,-1017.39 551.775,-1010.04 520.207,-1003.7"/>
<polygon fill="none" stroke="black" points="520.64,-1000.22 510.147,-1001.68 519.262,-1007.08 520.64,-1000.22"/>
</g>
<!-- \\LudoDBException -->
<g id="node6" class="node"><title>\\LudoDBException</title>
<g id="a_node6"><a xlink:href="LudoDBExceptions.html" xlink:title="LudoDBException" target="_parent">
<polygon fill="none" stroke="black" points="500,-547 382,-547 382,-511 500,-511 500,-547"/>
<text text-anchor="middle" x="441" y="-526.2" font-family="Courier,monospace" font-size="11.00">LudoDBException</text>
</a>
</g>
</g>
<!-- \\Exception -->
<g id="node30" class="node"><title>\\Exception</title>
<ellipse fill="none" stroke="black" cx="244" cy="-18" rx="50.0912" ry="18"/>
<text text-anchor="middle" x="244" y="-14.3" font-family="Times New Roman,serif" font-size="14.00" fill="gray">\Exception</text>
</g>
<!-- \\LudoDBException&#45;&gt;\\Exception -->
<g id="edge4" class="edge"><title>\\LudoDBException&#45;&gt;\\Exception</title>
<path fill="none" stroke="black" d="M440.197,-510.785C439.971,-440.518 429.919,-183.848 300,-40 297.997,-37.7819 295.739,-35.7839 293.312,-33.9846"/>
<polygon fill="none" stroke="black" points="294.877,-30.8394 284.522,-28.6015 291.222,-36.8089 294.877,-30.8394"/>
</g>
<!-- \\LudoDBClassNotFoundException -->
<g id="node7" class="node"><title>\\LudoDBClassNotFoundException</title>
<g id="a_node7"><a xlink:href="LudoDBExceptions.html" xlink:title="LudoDBClassNotFoundException" target="_parent">
<polygon fill="none" stroke="black" points="815,-574 609,-574 609,-538 815,-538 815,-574"/>
<text text-anchor="middle" x="712" y="-553.2" font-family="Courier,monospace" font-size="11.00">LudoDBClassNotFoundException</text>
</a>
</g>
</g>
<!-- \\LudoDBClassNotFoundException&#45;&gt;\\LudoDBException -->
<g id="edge5" class="edge"><title>\\LudoDBClassNotFoundException&#45;&gt;\\LudoDBException</title>
<path fill="none" stroke="black" d="M608.919,-545.754C576.08,-542.458 540.498,-538.886 510.657,-535.891"/>
<polygon fill="none" stroke="black" points="510.655,-532.374 500.355,-534.857 509.956,-539.339 510.655,-532.374"/>
</g>
<!-- \\LudoDBObjectNotFoundException -->
<g id="node8" class="node"><title>\\LudoDBObjectNotFoundException</title>
<g id="a_node8"><a xlink:href="LudoDBExceptions.html" xlink:title="LudoDBObjectNotFoundException" target="_parent">
<polygon fill="none" stroke="black" points="818,-520 606,-520 606,-484 818,-484 818,-520"/>
<text text-anchor="middle" x="712" y="-499.2" font-family="Courier,monospace" font-size="11.00">LudoDBObjectNotFoundException</text>
</a>
</g>
</g>
<!-- \\LudoDBObjectNotFoundException&#45;&gt;\\LudoDBException -->
<g id="edge6" class="edge"><title>\\LudoDBObjectNotFoundException&#45;&gt;\\LudoDBException</title>
<path fill="none" stroke="black" d="M605.842,-512.555C573.679,-515.783 539.163,-519.248 510.145,-522.16"/>
<polygon fill="none" stroke="black" points="509.724,-518.685 500.123,-523.166 510.423,-525.65 509.724,-518.685"/>
</g>
<!-- \\LudoDBConnectionException -->
<g id="node9" class="node"><title>\\LudoDBConnectionException</title>
<g id="a_node9"><a xlink:href="LudoDBExceptions.html" xlink:title="LudoDBConnectionException" target="_parent">
<polygon fill="none" stroke="black" points="804.5,-466 619.5,-466 619.5,-430 804.5,-430 804.5,-466"/>
<text text-anchor="middle" x="712" y="-445.2" font-family="Courier,monospace" font-size="11.00">LudoDBConnectionException</text>
</a>
</g>
</g>
<!-- \\LudoDBConnectionException&#45;&gt;\\LudoDBException -->
<g id="edge7" class="edge"><title>\\LudoDBConnectionException&#45;&gt;\\LudoDBException</title>
<path fill="none" stroke="black" d="M619.278,-465.284C606.673,-468.215 593.959,-471.467 582,-475 551.961,-483.873 519.257,-496.323 493.017,-507.033"/>
<polygon fill="none" stroke="black" points="491.57,-503.843 483.659,-510.89 494.238,-510.315 491.57,-503.843"/>
</g>
<!-- \\LudoDBInvalidArgumentsException -->
<g id="node10" class="node"><title>\\LudoDBInvalidArgumentsException</title>
<g id="a_node10"><a xlink:href="LudoDBExceptions.html" xlink:title="LudoDBInvalidArgumentsException" target="_parent">
<polygon fill="none" stroke="black" points="825,-412 599,-412 599,-376 825,-376 825,-412"/>
<text text-anchor="middle" x="712" y="-391.2" font-family="Courier,monospace" font-size="11.00">LudoDBInvalidArgumentsException</text>
</a>
</g>
</g>
<!-- \\LudoDBInvalidArgumentsException&#45;&gt;\\LudoDBException -->
<g id="edge8" class="edge"><title>\\LudoDBInvalidArgumentsException&#45;&gt;\\LudoDBException</title>
<path fill="none" stroke="black" d="M605.174,-412.022C597.19,-414.626 589.378,-417.601 582,-421 537.084,-441.692 493.258,-479.11 466.937,-504.009"/>
<polygon fill="none" stroke="black" points="464.458,-501.537 459.67,-510.988 469.306,-506.586 464.458,-501.537"/>
</g>
<!-- \\LudoDBUnauthorizedException -->
<g id="node11" class="node"><title>\\LudoDBUnauthorizedException</title>
<g id="a_node11"><a xlink:href="LudoDBExceptions.html" xlink:title="LudoDBUnauthorizedException" target="_parent">
<polygon fill="none" stroke="black" points="811.5,-736 612.5,-736 612.5,-700 811.5,-700 811.5,-736"/>
<text text-anchor="middle" x="712" y="-715.2" font-family="Courier,monospace" font-size="11.00">LudoDBUnauthorizedException</text>
</a>
</g>
</g>
<!-- \\LudoDBUnauthorizedException&#45;&gt;\\LudoDBException -->
<g id="edge9" class="edge"><title>\\LudoDBUnauthorizedException&#45;&gt;\\LudoDBException</title>
<path fill="none" stroke="black" d="M612.312,-704.419C601.696,-700.913 591.365,-696.515 582,-691 525.158,-657.526 479.848,-592.614 457.396,-555.935"/>
<polygon fill="none" stroke="black" points="460.334,-554.029 452.187,-547.255 454.331,-557.631 460.334,-554.029"/>
</g>
<!-- \\LudoDBServiceNotImplementedException -->
<g id="node12" class="node"><title>\\LudoDBServiceNotImplementedException</title>
<g id="a_node12"><a xlink:href="LudoDBExceptions.html" xlink:title="LudoDBServiceNotImplementedException" target="_parent">
<polygon fill="none" stroke="black" points="842,-682 582,-682 582,-646 842,-646 842,-682"/>
<text text-anchor="middle" x="712" y="-661.2" font-family="Courier,monospace" font-size="11.00">LudoDBServiceNotImplementedException</text>
</a>
</g>
</g>
<!-- \\LudoDBServiceNotImplementedException&#45;&gt;\\LudoDBException -->
<g id="edge10" class="edge"><title>\\LudoDBServiceNotImplementedException&#45;&gt;\\LudoDBException</title>
<path fill="none" stroke="black" d="M605.174,-645.978C597.19,-643.374 589.378,-640.399 582,-637 537.084,-616.308 493.258,-578.89 466.937,-553.991"/>
<polygon fill="none" stroke="black" points="469.306,-551.414 459.67,-547.012 464.458,-556.463 469.306,-551.414"/>
</g>
<!-- \\LudoDBInvalidServiceException -->
<g id="node13" class="node"><title>\\LudoDBInvalidServiceException</title>
<g id="a_node13"><a xlink:href="LudoDBExceptions.html" xlink:title="LudoDBInvalidServiceException" target="_parent">
<polygon fill="none" stroke="black" points="818,-142 606,-142 606,-106 818,-106 818,-142"/>
<text text-anchor="middle" x="712" y="-121.2" font-family="Courier,monospace" font-size="11.00">LudoDBInvalidServiceException</text>
</a>
</g>
</g>
<!-- \\LudoDBInvalidServiceException&#45;&gt;\\Exception -->
<g id="edge11" class="edge"><title>\\LudoDBInvalidServiceException&#45;&gt;\\Exception</title>
<path fill="none" stroke="black" d="M623.506,-105.983C609.609,-103.036 595.403,-99.9731 582,-97 480.37,-74.4555 361.969,-46.2475 296.031,-30.3642"/>
<polygon fill="none" stroke="black" points="296.452,-26.8653 285.91,-27.9236 294.811,-33.6702 296.452,-26.8653"/>
</g>
<!-- \\LudoDBInvalidConfigException -->
<g id="node14" class="node"><title>\\LudoDBInvalidConfigException</title>
<g id="a_node14"><a xlink:href="LudoDBExceptions.html" xlink:title="LudoDBInvalidConfigException" target="_parent">
<polygon fill="none" stroke="black" points="815,-628 609,-628 609,-592 815,-592 815,-628"/>
<text text-anchor="middle" x="712" y="-607.2" font-family="Courier,monospace" font-size="11.00">LudoDBInvalidConfigException</text>
</a>
</g>
</g>
<!-- \\LudoDBInvalidConfigException&#45;&gt;\\LudoDBException -->
<g id="edge12" class="edge"><title>\\LudoDBInvalidConfigException&#45;&gt;\\LudoDBException</title>
<path fill="none" stroke="black" d="M616.154,-591.984C604.579,-589.246 592.972,-586.241 582,-583 551.961,-574.127 519.257,-561.677 493.017,-550.967"/>
<polygon fill="none" stroke="black" points="494.238,-547.685 483.659,-547.11 491.57,-554.157 494.238,-547.685"/>
</g>
<!-- \\LudoDBAdapter -->
<g id="node15" class="node"><title>\\LudoDBAdapter</title>
<g id="a_node15"><a xlink:href="LudoDBInterfaces.html" xlink:title="LudoDBAdapter" target="_parent">
<polygon fill="none" stroke="black" points="493,-844 389,-844 389,-808 493,-808 493,-844"/>
<text text-anchor="middle" x="441" y="-823.2" font-family="Courier,monospace" font-size="11.00">LudoDBAdapter</text>
</a>
</g>
</g>
<!-- \\LudoDBService -->
<g id="node16" class="node"><title>\\LudoDBService</title>
<g id="a_node16"><a xlink:href="LudoDBInterfaces.html" xlink:title="LudoDBService" target="_parent">
<polygon fill="none" stroke="black" points="493,-790 389,-790 389,-754 493,-754 493,-790"/>
<text text-anchor="middle" x="441" y="-769.2" font-family="Courier,monospace" font-size="11.00">LudoDBService</text>
</a>
</g>
</g>
<!-- \\LudoDBObject -->
<g id="node21" class="node"><title>\\LudoDBObject</title>
<g id="a_node21"><a xlink:href="LudoDBObject.html" xlink:title="«abstract»&lt;br/&gt;LudoDBObject" target="_parent">
<polygon fill="none" stroke="black" points="115.5,-992 16.5,-992 16.5,-956 115.5,-956 115.5,-992"/>
<text text-anchor="start" x="32" y="-977.7" font-family="Courier,monospace" font-size="11.00">«abstract»</text>
<text text-anchor="start" x="25" y="-966.7" font-family="Courier,monospace" font-size="11.00">LudoDBObject</text>
</a>
</g>
</g>
<!-- \\LudoDBIterator&#45;&gt;\\LudoDBObject -->
<g id="edge13" class="edge"><title>\\LudoDBIterator&#45;&gt;\\LudoDBObject</title>
<path fill="none" stroke="black" d="M188.277,-946.437C168.423,-950.949 145.918,-956.064 125.732,-960.652"/>
<polygon fill="none" stroke="black" points="124.698,-957.297 115.723,-962.927 126.25,-964.123 124.698,-957.297"/>
</g>
<!-- \\Iterator -->
<g id="node31" class="node"><title>\\Iterator</title>
<ellipse fill="none" stroke="black" cx="66" cy="-18" rx="42.4939" ry="18"/>
<text text-anchor="middle" x="66" y="-14.3" font-family="Times New Roman,serif" font-size="14.00" fill="gray">\\Iterator</text>
</g>
<!-- \\LudoDBIterator&#45;&gt;\\Iterator -->
<g id="edge19" class="edge"><title>\\LudoDBIterator&#45;&gt;\\Iterator</title>
<path fill="none" stroke="black" stroke-dasharray="1,5" d="M242.743,-915.733C240.801,-801.48 225.321,-185.321 116,-40 114.213,-37.6247 112.112,-35.4998 109.801,-33.5999"/>
<polygon fill="none" stroke="black" points="111.568,-30.5717 101.297,-27.9694 107.703,-36.4084 111.568,-30.5717"/>
</g>
<!-- \\LudoDBModel&#45;&gt;\\LudoDBObject -->
<g id="edge14" class="edge"><title>\\LudoDBModel&#45;&gt;\\LudoDBObject</title>
<path fill="none" stroke="black" d="M197.676,-1004.44C175.663,-999.314 148.95,-993.091 125.427,-987.611"/>
<polygon fill="none" stroke="black" points="126.097,-984.173 115.564,-985.313 124.509,-990.991 126.097,-984.173"/>
</g>
<!-- \\LudoDBMySqlI -->
<g id="node19" class="node"><title>\\LudoDBMySqlI</title>
<g id="a_node19"><a xlink:href="LudoDBMySqlI.html" xlink:title="LudoDBMySqlI" target="_parent">
<polygon fill="none" stroke="black" points="761,-898 663,-898 663,-862 761,-862 761,-898"/>
<text text-anchor="middle" x="712" y="-877.2" font-family="Courier,monospace" font-size="11.00">LudoDBMySqlI</text>
</a>
</g>
</g>
<!-- \\LudoDBMySqlI&#45;&gt;\\LudoDB -->
<g id="edge15" class="edge"><title>\\LudoDBMySqlI&#45;&gt;\\LudoDB</title>
<path fill="none" stroke="black" d="M662.908,-880C610.503,-880 527.749,-880 479.796,-880"/>
<polygon fill="none" stroke="black" points="479.541,-876.5 469.541,-880 479.541,-883.5 479.541,-876.5"/>
</g>
<!-- \\LudoDBMySqlI&#45;&gt;\\LudoDBAdapter -->
<g id="edge20" class="edge"><title>\\LudoDBMySqlI&#45;&gt;\\LudoDBAdapter</title>
<path fill="none" stroke="black" stroke-dasharray="1,5" d="M662.908,-870.346C618.325,-861.396 551.776,-848.037 503.377,-838.321"/>
<polygon fill="none" stroke="black" points="503.832,-834.843 493.339,-836.306 502.455,-841.706 503.832,-834.843"/>
</g>
<!-- \\LudoDBMysql -->
<g id="node20" class="node"><title>\\LudoDBMysql</title>
<g id="a_node20"><a xlink:href="LudoDBMysql.html" xlink:title="LudoDBMysql" target="_parent">
<polygon fill="none" stroke="black" points="757.5,-844 666.5,-844 666.5,-808 757.5,-808 757.5,-844"/>
<text text-anchor="middle" x="712" y="-823.2" font-family="Courier,monospace" font-size="11.00">LudoDBMysql</text>
</a>
</g>
</g>
<!-- \\LudoDBMysql&#45;&gt;\\LudoDB -->
<g id="edge16" class="edge"><title>\\LudoDBMysql&#45;&gt;\\LudoDB</title>
<path fill="none" stroke="black" d="M666.278,-834.978C613.975,-845.477 528.336,-862.669 479.405,-872.491"/>
<polygon fill="none" stroke="black" points="478.662,-869.07 469.547,-874.47 480.04,-875.933 478.662,-869.07"/>
</g>
<!-- \\LudoDBMysql&#45;&gt;\\LudoDBAdapter -->
<g id="edge21" class="edge"><title>\\LudoDBMysql&#45;&gt;\\LudoDBAdapter</title>
<path fill="none" stroke="black" stroke-dasharray="1,5" d="M666.278,-826C621.785,-826 553.17,-826 503.549,-826"/>
<polygon fill="none" stroke="black" points="503.264,-822.5 493.264,-826 503.264,-829.5 503.264,-822.5"/>
</g>
<!-- \\LudoDBPDO -->
<g id="node22" class="node"><title>\\LudoDBPDO</title>
<g id="a_node22"><a xlink:href="LudoDBPDO.html" xlink:title="LudoDBPDO" target="_parent">
<polygon fill="none" stroke="black" points="750.5,-952 673.5,-952 673.5,-916 750.5,-916 750.5,-952"/>
<text text-anchor="middle" x="712" y="-931.2" font-family="Courier,monospace" font-size="11.00">LudoDBPDO</text>
</a>
</g>
</g>
<!-- \\LudoDBPDO&#45;&gt;\\LudoDB -->
<g id="edge17" class="edge"><title>\\LudoDBPDO&#45;&gt;\\LudoDB</title>
<path fill="none" stroke="black" d="M673.313,-926.435C622.044,-916.143 530.85,-897.836 479.617,-887.551"/>
<polygon fill="none" stroke="black" points="480.116,-884.082 469.623,-885.545 478.738,-890.945 480.116,-884.082"/>
</g>
<!-- \\LudoDBPDO&#45;&gt;\\LudoDBAdapter -->
<g id="edge22" class="edge"><title>\\LudoDBPDO&#45;&gt;\\LudoDBAdapter</title>
<path fill="none" stroke="black" stroke-dasharray="1,5" d="M673.237,-930.49C646.773,-926.994 611.081,-920.158 582,-907 545.557,-890.51 544.895,-872.553 510,-853 507.174,-851.417 504.237,-849.881 501.238,-848.399"/>
<polygon fill="none" stroke="black" points="502.647,-845.194 492.107,-844.12 499.677,-851.533 502.647,-845.194"/>
</g>
<!-- \\LudoDBProfiling -->
<g id="node23" class="node"><title>\\LudoDBProfiling</title>
<g id="a_node23"><a xlink:href="LudoDBProfiling.html" xlink:title="LudoDBProfiling" target="_parent">
<polygon fill="none" stroke="black" points="771,-790 653,-790 653,-754 771,-754 771,-790"/>
<text text-anchor="middle" x="712" y="-769.2" font-family="Courier,monospace" font-size="11.00">LudoDBProfiling</text>
</a>
</g>
</g>
<!-- \\LudoDBProfiling&#45;&gt;\\LudoDBService -->
<g id="edge23" class="edge"><title>\\LudoDBProfiling&#45;&gt;\\LudoDBService</title>
<path fill="none" stroke="black" stroke-dasharray="1,5" d="M652.962,-772C608.829,-772 548.249,-772 503.326,-772"/>
<polygon fill="none" stroke="black" points="503.128,-768.5 493.128,-772 503.128,-775.5 503.128,-768.5"/>
</g>
<!-- \\LudoDBRegistry -->
<g id="node24" class="node"><title>\\LudoDBRegistry</title>
<g id="a_node24"><a xlink:href="LudoDBRegistry.html" xlink:title="LudoDBRegistry" target="_parent">
<polygon fill="none" stroke="black" points="767.5,-358 656.5,-358 656.5,-322 767.5,-322 767.5,-358"/>
<text text-anchor="middle" x="712" y="-337.2" font-family="Courier,monospace" font-size="11.00">LudoDBRegistry</text>
</a>
</g>
</g>
<!-- \\LudoDBRequestHandler -->
<g id="node25" class="node"><title>\\LudoDBRequestHandler</title>
<g id="a_node25"><a xlink:href="LudoDBRequestHandler.html" xlink:title="LudoDBRequestHandler" target="_parent">
<polygon fill="none" stroke="black" points="788,-304 636,-304 636,-268 788,-268 788,-304"/>
<text text-anchor="middle" x="712" y="-283.2" font-family="Courier,monospace" font-size="11.00">LudoDBRequestHandler</text>
</a>
</g>
</g>
<!-- \\LudoDBSql -->
<g id="node26" class="node"><title>\\LudoDBSql</title>
<g id="a_node26"><a xlink:href="LudoDBSQL.html" xlink:title="LudoDBSql" target="_parent">
<polygon fill="none" stroke="black" points="750.5,-250 673.5,-250 673.5,-214 750.5,-214 750.5,-250"/>
<text text-anchor="middle" x="712" y="-229.2" font-family="Courier,monospace" font-size="11.00">LudoDBSql</text>
</a>
</g>
</g>
<!-- \\LudoDBServiceRegistry -->
<g id="node27" class="node"><title>\\LudoDBServiceRegistry</title>
<g id="a_node27"><a xlink:href="LudoDBServiceRegistry.html" xlink:title="LudoDBServiceRegistry" target="_parent">
<polygon fill="none" stroke="black" points="791,-196 633,-196 633,-160 791,-160 791,-196"/>
<text text-anchor="middle" x="712" y="-175.2" font-family="Courier,monospace" font-size="11.00">LudoDBServiceRegistry</text>
</a>
</g>
</g>
<!-- \\LudoDBTreeCollection -->
<g id="node28" class="node"><title>\\LudoDBTreeCollection</title>
<g id="a_node28"><a xlink:href="LudoDBTreeCollection.html" xlink:title="«abstract»&lt;br/&gt;LudoDBTreeCollection" target="_parent">
<polygon fill="none" stroke="black" points="788.5,-1006 635.5,-1006 635.5,-970 788.5,-970 788.5,-1006"/>
<text text-anchor="start" x="678" y="-991.7" font-family="Courier,monospace" font-size="11.00">«abstract»</text>
<text text-anchor="start" x="644" y="-980.7" font-family="Courier,monospace" font-size="11.00">LudoDBTreeCollection</text>
</a>
</g>
</g>
<!-- \\LudoDBTreeCollection&#45;&gt;\\LudoDBCollection -->
<g id="edge18" class="edge"><title>\\LudoDBTreeCollection&#45;&gt;\\LudoDBCollection</title>
<path fill="none" stroke="black" d="M635.353,-972.814C597.408,-965.197 551.678,-956.017 514.22,-948.498"/>
<polygon fill="none" stroke="black" points="514.881,-945.061 504.387,-946.524 513.503,-951.924 514.881,-945.061"/>
</g>
<!-- \\LudoDBUtility -->
<g id="node29" class="node"><title>\\LudoDBUtility</title>
<g id="a_node29"><a xlink:href="LudoDBUtility.html" xlink:title="LudoDBUtility" target="_parent">
<polygon fill="none" stroke="black" points="764,-88 660,-88 660,-52 764,-52 764,-88"/>
<text text-anchor="middle" x="712" y="-67.2" font-family="Courier,monospace" font-size="11.00">LudoDBUtility</text>
</a>
</g>
</g>
</g>
</svg>
