<?xml version="1.0" encoding="UTF-8" standalone="no"?>
<!DOCTYPE svg PUBLIC "-//W3C//DTD SVG 1.1//EN"
 "http://www.w3.org/Graphics/SVG/1.1/DTD/svg11.dtd">
<!-- Generated by graphviz version 2.30.1 (20130214.1330)
 -->
<!-- Title: G Pages: 1 -->
<svg width="866pt" height="1158pt"
 viewBox="0.00 0.00 866.00 1158.00" xmlns="http://www.w3.org/2000/svg" xmlns:xlink="http://www.w3.org/1999/xlink">
<g id="graph0" class="graph" transform="scale(1 1) rotate(0) translate(4 1154)">
<title>G</title>
<polygon fill="white" stroke="white" points="-4,5 -4,-1154 863,-1154 863,5 -4,5"/>
<g id="clust1" class="cluster"><title>cluster_global</title>
<path fill="none" stroke="gray" d="M20,-44C20,-44 838,-44 838,-44 844,-44 850,-50 850,-56 850,-56 850,-1130 850,-1130 850,-1136 844,-1142 838,-1142 838,-1142 20,-1142 20,-1142 14,-1142 8,-1136 8,-1130 8,-1130 8,-56 8,-56 8,-50 14,-44 20,-44"/>
<text text-anchor="middle" x="429" y="-1129.2" font-family="Times New Roman,serif" font-size="11.00" fill="gray">global</text>
</g>
<!-- \\LudoDB -->
<g id="node1" class="node"><title>\\LudoDB</title>
<g id="a_node1"><a xlink:href="LudoDB.html" xlink:title="LudoDB" target="_parent">
<polygon fill="none" stroke="black" points="469.5,-952 412.5,-952 412.5,-916 469.5,-916 469.5,-952"/>
<text text-anchor="middle" x="441" y="-931.2" font-family="Courier,monospace" font-size="11.00">LudoDB</text>
</a>
</g>
</g>
<!-- \\LudoDBCache -->
<g id="node2" class="node"><title>\\LudoDBCache</title>
<g id="a_node2"><a xlink:href="LudoDBCache.html" xlink:title="LudoDBCache" target="_parent">
<polygon fill="none" stroke="black" points="486.5,-1114 395.5,-1114 395.5,-1078 486.5,-1078 486.5,-1114"/>
<text text-anchor="middle" x="441" y="-1093.2" font-family="Courier,monospace" font-size="11.00">LudoDBCache</text>
</a>
</g>
</g>
<!-- \\LudoDBModel -->
<g id="node18" class="node"><title>\\LudoDBModel</title>
<g id="a_node18"><a xlink:href="LudoDBModel.html" xlink:title="«abstract»&lt;br/&gt;LudoDBModel" target="_parent">
<polygon fill="none" stroke="black" points="290,-1087 198,-1087 198,-1051 290,-1051 290,-1087"/>
<text text-anchor="start" x="210" y="-1072.7" font-family="Courier,monospace" font-size="11.00">«abstract»</text>
<text text-anchor="start" x="206.5" y="-1061.7" font-family="Courier,monospace" font-size="11.00">LudoDBModel</text>
</a>
</g>
</g>
<!-- \\LudoDBCache&#45;&gt;\\LudoDBModel -->
<g id="edge1" class="edge"><title>\\LudoDBCache&#45;&gt;\\LudoDBModel</title>
<path fill="none" stroke="black" d="M395.263,-1089.81C366.977,-1085.89 330.212,-1080.8 300.128,-1076.63"/>
<polygon fill="none" stroke="black" points="300.59,-1073.16 290.204,-1075.26 299.629,-1080.1 300.59,-1073.16"/>
</g>
<!-- \\LudoDBCollection -->
<g id="node3" class="node"><title>\\LudoDBCollection</title>
<g id="a_node3"><a xlink:href="LudoDBCollection.html" xlink:title="«abstract»&lt;br/&gt;LudoDBCollection" target="_parent">
<polygon fill="none" stroke="black" points="504,-1006 378,-1006 378,-970 504,-970 504,-1006"/>
<text text-anchor="start" x="407" y="-991.7" font-family="Courier,monospace" font-size="11.00">«abstract»</text>
<text text-anchor="start" x="386.5" y="-980.7" font-family="Courier,monospace" font-size="11.00">LudoDBCollection</text>
</a>
</g>
</g>
<!-- \\LudoDBIterator -->
<g id="node17" class="node"><title>\\LudoDBIterator</title>
<g id="a_node17"><a xlink:href="LudoDBIterator.html" xlink:title="LudoDBIterator" target="_parent">
<polygon fill="none" stroke="black" points="299.5,-1006 188.5,-1006 188.5,-970 299.5,-970 299.5,-1006"/>
<text text-anchor="middle" x="244" y="-985.2" font-family="Courier,monospace" font-size="11.00">LudoDBIterator</text>
</a>
</g>
</g>
<!-- \\LudoDBCollection&#45;&gt;\\LudoDBIterator -->
<g id="edge2" class="edge"><title>\\LudoDBCollection&#45;&gt;\\LudoDBIterator</title>
<path fill="none" stroke="black" d="M377.765,-988C356.115,-988 331.784,-988 309.922,-988"/>
<polygon fill="none" stroke="black" points="309.741,-984.5 299.741,-988 309.741,-991.5 309.741,-984.5"/>
</g>
<!-- \\LudoDBCollectionConfigParser -->
<g id="node4" class="node"><title>\\LudoDBCollectionConfigParser</title>
<g id="a_node4"><a xlink:href="LudoDBCollectionConfigParser.html" xlink:title="LudoDBCollectionConfigParser" target="_parent">
<polygon fill="none" stroke="black" points="815,-1114 609,-1114 609,-1078 815,-1078 815,-1114"/>
<text text-anchor="middle" x="712" y="-1093.2" font-family="Courier,monospace" font-size="11.00">LudoDBCollectionConfigParser</text>
</a>
</g>
</g>
<!-- \\LudoDBConfigParser -->
<g id="node5" class="node"><title>\\LudoDBConfigParser</title>
<g id="a_node5"><a xlink:href="LudoDBConfigParser.html" xlink:title="LudoDBConfigParser" target="_parent">
<polygon fill="none" stroke="black" points="510,-1060 372,-1060 372,-1024 510,-1024 510,-1060"/>
<text text-anchor="middle" x="441" y="-1039.2" font-family="Courier,monospace" font-size="11.00">LudoDBConfigParser</text>
</a>
</g>
</g>
<!-- \\LudoDBCollectionConfigParser&#45;&gt;\\LudoDBConfigParser -->
<g id="edge3" class="edge"><title>\\LudoDBCollectionConfigParser&#45;&gt;\\LudoDBConfigParser</title>
<path fill="none" stroke="black" d="M621.053,-1077.94C588.39,-1071.39 551.775,-1064.04 520.207,-1057.7"/>
<polygon fill="none" stroke="black" points="520.64,-1054.22 510.147,-1055.68 519.262,-1061.08 520.64,-1054.22"/>
</g>
<!-- \\LudoDBException -->
<g id="node6" class="node"><title>\\LudoDBException</title>
<g id="a_node6"><a xlink:href="LudoDBExceptions.html" xlink:title="LudoDBException" target="_parent">
<polygon fill="none" stroke="black" points="500,-547 382,-547 382,-511 500,-511 500,-547"/>
<text text-anchor="middle" x="441" y="-526.2" font-family="Courier,monospace" font-size="11.00">LudoDBException</text>
</a>
</g>
</g>
<!-- \\Exception -->
<g id="node31" class="node"><title>\\Exception</title>
<ellipse fill="none" stroke="black" cx="244" cy="-18" rx="50.0912" ry="18"/>
<text text-anchor="middle" x="244" y="-14.3" font-family="Times New Roman,serif" font-size="14.00" fill="gray">\Exception</text>
</g>
<!-- \\LudoDBException&#45;&gt;\\Exception -->
<g id="edge4" class="edge"><title>\\LudoDBException&#45;&gt;\\Exception</title>
<path fill="none" stroke="black" d="M440.197,-510.785C439.971,-440.518 429.919,-183.848 300,-40 297.997,-37.7819 295.739,-35.7839 293.312,-33.9846"/>
<polygon fill="none" stroke="black" points="294.877,-30.8394 284.522,-28.6015 291.222,-36.8089 294.877,-30.8394"/>
</g>
<!-- \\LudoDBClassNotFoundException -->
<g id="node7" class="node"><title>\\LudoDBClassNotFoundException</title>
<g id="a_node7"><a xlink:href="LudoDBExceptions.html" xlink:title="LudoDBClassNotFoundException" target="_parent">
<polygon fill="none" stroke="black" points="815,-466 609,-466 609,-430 815,-430 815,-466"/>
<text text-anchor="middle" x="712" y="-445.2" font-family="Courier,monospace" font-size="11.00">LudoDBClassNotFoundException</text>
</a>
</g>
</g>
<!-- \\LudoDBClassNotFoundException&#45;&gt;\\LudoDBException -->
<g id="edge5" class="edge"><title>\\LudoDBClassNotFoundException&#45;&gt;\\LudoDBException</title>
<path fill="none" stroke="black" d="M616.154,-466.016C604.579,-468.754 592.972,-471.759 582,-475 551.961,-483.873 519.257,-496.323 493.017,-507.033"/>
<polygon fill="none" stroke="black" points="491.57,-503.843 483.659,-510.89 494.238,-510.315 491.57,-503.843"/>
</g>
<!-- \\LudoDBObjectNotFoundException -->
<g id="node8" class="node"><title>\\LudoDBObjectNotFoundException</title>
<g id="a_node8"><a xlink:href="LudoDBExceptions.html" xlink:title="LudoDBObjectNotFoundException" target="_parent">
<polygon fill="none" stroke="black" points="818,-196 606,-196 606,-160 818,-160 818,-196"/>
<text text-anchor="middle" x="712" y="-175.2" font-family="Courier,monospace" font-size="11.00">LudoDBObjectNotFoundException</text>
</a>
</g>
</g>
<!-- \\LudoDBObjectNotFoundException&#45;&gt;\\LudoDBException -->
<g id="edge6" class="edge"><title>\\LudoDBObjectNotFoundException&#45;&gt;\\LudoDBException</title>
<path fill="none" stroke="black" d="M605.925,-190.729C597.315,-194.458 589.179,-199.14 582,-205 486.871,-282.658 454.886,-437.287 445.481,-500.784"/>
<polygon fill="none" stroke="black" points="441.991,-500.467 444.067,-510.857 448.923,-501.44 441.991,-500.467"/>
</g>
<!-- \\LudoDBConnectionException -->
<g id="node9" class="node"><title>\\LudoDBConnectionException</title>
<g id="a_node9"><a xlink:href="LudoDBExceptions.html" xlink:title="LudoDBConnectionException" target="_parent">
<polygon fill="none" stroke="black" points="804.5,-736 619.5,-736 619.5,-700 804.5,-700 804.5,-736"/>
<text text-anchor="middle" x="712" y="-715.2" font-family="Courier,monospace" font-size="11.00">LudoDBConnectionException</text>
</a>
</g>
</g>
<!-- \\LudoDBConnectionException&#45;&gt;\\LudoDBException -->
<g id="edge7" class="edge"><title>\\LudoDBConnectionException&#45;&gt;\\LudoDBException</title>
<path fill="none" stroke="black" d="M619.387,-706.615C606.311,-702.803 593.435,-697.734 582,-691 525.158,-657.526 479.848,-592.614 457.396,-555.935"/>
<polygon fill="none" stroke="black" points="460.334,-554.029 452.187,-547.255 454.331,-557.631 460.334,-554.029"/>
</g>
<!-- \\LudoDBInvalidArgumentsException -->
<g id="node10" class="node"><title>\\LudoDBInvalidArgumentsException</title>
<g id="a_node10"><a xlink:href="LudoDBExceptions.html" xlink:title="LudoDBInvalidArgumentsException" target="_parent">
<polygon fill="none" stroke="black" points="825,-682 599,-682 599,-646 825,-646 825,-682"/>
<text text-anchor="middle" x="712" y="-661.2" font-family="Courier,monospace" font-size="11.00">LudoDBInvalidArgumentsException</text>
</a>
</g>
</g>
<!-- \\LudoDBInvalidArgumentsException&#45;&gt;\\LudoDBException -->
<g id="edge8" class="edge"><title>\\LudoDBInvalidArgumentsException&#45;&gt;\\LudoDBException</title>
<path fill="none" stroke="black" d="M605.174,-645.978C597.19,-643.374 589.378,-640.399 582,-637 537.084,-616.308 493.258,-578.89 466.937,-553.991"/>
<polygon fill="none" stroke="black" points="469.306,-551.414 459.67,-547.012 464.458,-556.463 469.306,-551.414"/>
</g>
<!-- \\LudoDBUnauthorizedException -->
<g id="node11" class="node"><title>\\LudoDBUnauthorizedException</title>
<g id="a_node11"><a xlink:href="LudoDBExceptions.html" xlink:title="LudoDBUnauthorizedException" target="_parent">
<polygon fill="none" stroke="black" points="811.5,-628 612.5,-628 612.5,-592 811.5,-592 811.5,-628"/>
<text text-anchor="middle" x="712" y="-607.2" font-family="Courier,monospace" font-size="11.00">LudoDBUnauthorizedException</text>
</a>
</g>
</g>
<!-- \\LudoDBUnauthorizedException&#45;&gt;\\LudoDBException -->
<g id="edge9" class="edge"><title>\\LudoDBUnauthorizedException&#45;&gt;\\LudoDBException</title>
<path fill="none" stroke="black" d="M616.154,-591.984C604.579,-589.246 592.972,-586.241 582,-583 551.961,-574.127 519.257,-561.677 493.017,-550.967"/>
<polygon fill="none" stroke="black" points="494.238,-547.685 483.659,-547.11 491.57,-554.157 494.238,-547.685"/>
</g>
<!-- \\LudoDBServiceNotImplementedException -->
<g id="node12" class="node"><title>\\LudoDBServiceNotImplementedException</title>
<g id="a_node12"><a xlink:href="LudoDBExceptions.html" xlink:title="LudoDBServiceNotImplementedException" target="_parent">
<polygon fill="none" stroke="black" points="842,-574 582,-574 582,-538 842,-538 842,-574"/>
<text text-anchor="middle" x="712" y="-553.2" font-family="Courier,monospace" font-size="11.00">LudoDBServiceNotImplementedException</text>
</a>
</g>
</g>
<!-- \\LudoDBServiceNotImplementedException&#45;&gt;\\LudoDBException -->
<g id="edge10" class="edge"><title>\\LudoDBServiceNotImplementedException&#45;&gt;\\LudoDBException</title>
<path fill="none" stroke="black" d="M581.621,-543.014C556.988,-540.542 532.126,-538.046 510.345,-535.86"/>
<polygon fill="none" stroke="black" points="510.542,-532.362 500.242,-534.846 509.843,-539.327 510.542,-532.362"/>
</g>
<!-- \\LudoDBInvalidServiceException -->
<g id="node13" class="node"><title>\\LudoDBInvalidServiceException</title>
<g id="a_node13"><a xlink:href="LudoDBExceptions.html" xlink:title="LudoDBInvalidServiceException" target="_parent">
<polygon fill="none" stroke="black" points="818,-88 606,-88 606,-52 818,-52 818,-88"/>
<text text-anchor="middle" x="712" y="-67.2" font-family="Courier,monospace" font-size="11.00">LudoDBInvalidServiceException</text>
</a>
</g>
</g>
<!-- \\LudoDBInvalidServiceException&#45;&gt;\\Exception -->
<g id="edge11" class="edge"><title>\\LudoDBInvalidServiceException&#45;&gt;\\Exception</title>
<path fill="none" stroke="black" d="M605.839,-58.2653C511.875,-47.7801 377.736,-32.8117 302.272,-24.3909"/>
<polygon fill="none" stroke="black" points="302.35,-20.878 292.024,-23.2473 301.574,-27.8348 302.35,-20.878"/>
</g>
<!-- \\LudoDBInvalidConfigException -->
<g id="node14" class="node"><title>\\LudoDBInvalidConfigException</title>
<g id="a_node14"><a xlink:href="LudoDBExceptions.html" xlink:title="LudoDBInvalidConfigException" target="_parent">
<polygon fill="none" stroke="black" points="815,-520 609,-520 609,-484 815,-484 815,-520"/>
<text text-anchor="middle" x="712" y="-499.2" font-family="Courier,monospace" font-size="11.00">LudoDBInvalidConfigException</text>
</a>
</g>
</g>
<!-- \\LudoDBInvalidConfigException&#45;&gt;\\LudoDBException -->
<g id="edge12" class="edge"><title>\\LudoDBInvalidConfigException&#45;&gt;\\LudoDBException</title>
<path fill="none" stroke="black" d="M608.919,-512.246C576.08,-515.542 540.498,-519.114 510.657,-522.109"/>
<polygon fill="none" stroke="black" points="509.956,-518.661 500.355,-523.143 510.655,-525.626 509.956,-518.661"/>
</g>
<!-- \\LudoDBAdapter -->
<g id="node15" class="node"><title>\\LudoDBAdapter</title>
<g id="a_node15"><a xlink:href="LudoDBInterfaces.html" xlink:title="LudoDBAdapter" target="_parent">
<polygon fill="none" stroke="black" points="493,-898 389,-898 389,-862 493,-862 493,-898"/>
<text text-anchor="middle" x="441" y="-877.2" font-family="Courier,monospace" font-size="11.00">LudoDBAdapter</text>
</a>
</g>
</g>
<!-- \\LudoDBService -->
<g id="node16" class="node"><title>\\LudoDBService</title>
<g id="a_node16"><a xlink:href="LudoDBInterfaces.html" xlink:title="LudoDBService" target="_parent">
<polygon fill="none" stroke="black" points="493,-817 389,-817 389,-781 493,-781 493,-817"/>
<text text-anchor="middle" x="441" y="-796.2" font-family="Courier,monospace" font-size="11.00">LudoDBService</text>
</a>
</g>
</g>
<!-- \\LudoDBObject -->
<g id="node21" class="node"><title>\\LudoDBObject</title>
<g id="a_node21"><a xlink:href="LudoDBObject.html" xlink:title="«abstract»&lt;br/&gt;LudoDBObject" target="_parent">
<polygon fill="none" stroke="black" points="115.5,-1046 16.5,-1046 16.5,-1010 115.5,-1010 115.5,-1046"/>
<text text-anchor="start" x="32" y="-1031.7" font-family="Courier,monospace" font-size="11.00">«abstract»</text>
<text text-anchor="start" x="25" y="-1020.7" font-family="Courier,monospace" font-size="11.00">LudoDBObject</text>
</a>
</g>
</g>
<!-- \\LudoDBIterator&#45;&gt;\\LudoDBObject -->
<g id="edge13" class="edge"><title>\\LudoDBIterator&#45;&gt;\\LudoDBObject</title>
<path fill="none" stroke="black" d="M188.277,-1000.44C168.423,-1004.95 145.918,-1010.06 125.732,-1014.65"/>
<polygon fill="none" stroke="black" points="124.698,-1011.3 115.723,-1016.93 126.25,-1018.12 124.698,-1011.3"/>
</g>
<!-- \\Iterator -->
<g id="node32" class="node"><title>\\Iterator</title>
<ellipse fill="none" stroke="black" cx="66" cy="-18" rx="42.4939" ry="18"/>
<text text-anchor="middle" x="66" y="-14.3" font-family="Times New Roman,serif" font-size="14.00" fill="gray">\\Iterator</text>
</g>
<!-- \\LudoDBIterator&#45;&gt;\\Iterator -->
<g id="edge19" class="edge"><title>\\LudoDBIterator&#45;&gt;\\Iterator</title>
<path fill="none" stroke="black" stroke-dasharray="1,5" d="M242.907,-969.795C241.969,-851.758 231.557,-194.888 116,-40 114.223,-37.6176 112.128,-35.4875 109.823,-33.5836"/>
<polygon fill="none" stroke="black" points="111.597,-30.5602 101.33,-27.945 107.725,-36.392 111.597,-30.5602"/>
</g>
<!-- \\LudoDBModel&#45;&gt;\\LudoDBObject -->
<g id="edge14" class="edge"><title>\\LudoDBModel&#45;&gt;\\LudoDBObject</title>
<path fill="none" stroke="black" d="M197.676,-1058.44C175.663,-1053.31 148.95,-1047.09 125.427,-1041.61"/>
<polygon fill="none" stroke="black" points="126.097,-1038.17 115.564,-1039.31 124.509,-1044.99 126.097,-1038.17"/>
</g>
<!-- \\LudoDBMySqlI -->
<g id="node19" class="node"><title>\\LudoDBMySqlI</title>
<g id="a_node19"><a xlink:href="LudoDBMySqlI.html" xlink:title="LudoDBMySqlI" target="_parent">
<polygon fill="none" stroke="black" points="761,-952 663,-952 663,-916 761,-916 761,-952"/>
<text text-anchor="middle" x="712" y="-931.2" font-family="Courier,monospace" font-size="11.00">LudoDBMySqlI</text>
</a>
</g>
</g>
<!-- \\LudoDBMySqlI&#45;&gt;\\LudoDB -->
<g id="edge15" class="edge"><title>\\LudoDBMySqlI&#45;&gt;\\LudoDB</title>
<path fill="none" stroke="black" d="M662.908,-934C610.503,-934 527.749,-934 479.796,-934"/>
<polygon fill="none" stroke="black" points="479.541,-930.5 469.541,-934 479.541,-937.5 479.541,-930.5"/>
</g>
<!-- \\LudoDBMySqlI&#45;&gt;\\LudoDBAdapter -->
<g id="edge20" class="edge"><title>\\LudoDBMySqlI&#45;&gt;\\LudoDBAdapter</title>
<path fill="none" stroke="black" stroke-dasharray="1,5" d="M662.908,-924.346C618.325,-915.396 551.776,-902.037 503.377,-892.321"/>
<polygon fill="none" stroke="black" points="503.832,-888.843 493.339,-890.306 502.455,-895.706 503.832,-888.843"/>
</g>
<!-- \\LudoDBMysql -->
<g id="node20" class="node"><title>\\LudoDBMysql</title>
<g id="a_node20"><a xlink:href="LudoDBMysql.html" xlink:title="LudoDBMysql" target="_parent">
<polygon fill="none" stroke="black" points="757.5,-898 666.5,-898 666.5,-862 757.5,-862 757.5,-898"/>
<text text-anchor="middle" x="712" y="-877.2" font-family="Courier,monospace" font-size="11.00">LudoDBMysql</text>
</a>
</g>
</g>
<!-- \\LudoDBMysql&#45;&gt;\\LudoDB -->
<g id="edge16" class="edge"><title>\\LudoDBMysql&#45;&gt;\\LudoDB</title>
<path fill="none" stroke="black" d="M666.278,-888.978C613.975,-899.477 528.336,-916.669 479.405,-926.491"/>
<polygon fill="none" stroke="black" points="478.662,-923.07 469.547,-928.47 480.04,-929.933 478.662,-923.07"/>
</g>
<!-- \\LudoDBMysql&#45;&gt;\\LudoDBAdapter -->
<g id="edge21" class="edge"><title>\\LudoDBMysql&#45;&gt;\\LudoDBAdapter</title>
<path fill="none" stroke="black" stroke-dasharray="1,5" d="M666.278,-880C621.785,-880 553.17,-880 503.549,-880"/>
<polygon fill="none" stroke="black" points="503.264,-876.5 493.264,-880 503.264,-883.5 503.264,-876.5"/>
</g>
<!-- \\LudoDBPDO -->
<g id="node22" class="node"><title>\\LudoDBPDO</title>
<g id="a_node22"><a xlink:href="LudoDBPDO.html" xlink:title="LudoDBPDO" target="_parent">
<polygon fill="none" stroke="black" points="750.5,-1006 673.5,-1006 673.5,-970 750.5,-970 750.5,-1006"/>
<text text-anchor="middle" x="712" y="-985.2" font-family="Courier,monospace" font-size="11.00">LudoDBPDO</text>
</a>
</g>
</g>
<!-- \\LudoDBPDO&#45;&gt;\\LudoDB -->
<g id="edge17" class="edge"><title>\\LudoDBPDO&#45;&gt;\\LudoDB</title>
<path fill="none" stroke="black" d="M673.313,-980.435C622.044,-970.143 530.85,-951.836 479.617,-941.551"/>
<polygon fill="none" stroke="black" points="480.116,-938.082 469.623,-939.545 478.738,-944.945 480.116,-938.082"/>
</g>
<!-- \\LudoDBPDO&#45;&gt;\\LudoDBAdapter -->
<g id="edge22" class="edge"><title>\\LudoDBPDO&#45;&gt;\\LudoDBAdapter</title>
<path fill="none" stroke="black" stroke-dasharray="1,5" d="M673.237,-984.49C646.773,-980.994 611.081,-974.158 582,-961 545.557,-944.51 544.895,-926.553 510,-907 507.174,-905.417 504.237,-903.881 501.238,-902.399"/>
<polygon fill="none" stroke="black" points="502.647,-899.194 492.107,-898.12 499.677,-905.533 502.647,-899.194"/>
</g>
<!-- \\LudoDBProfiling -->
<g id="node23" class="node"><title>\\LudoDBProfiling</title>
<g id="a_node23"><a xlink:href="LudoDBProfiling.html" xlink:title="LudoDBProfiling" target="_parent">
<polygon fill="none" stroke="black" points="771,-790 653,-790 653,-754 771,-754 771,-790"/>
<text text-anchor="middle" x="712" y="-769.2" font-family="Courier,monospace" font-size="11.00">LudoDBProfiling</text>
</a>
</g>
</g>
<!-- \\LudoDBProfiling&#45;&gt;\\LudoDBService -->
<g id="edge23" class="edge"><title>\\LudoDBProfiling&#45;&gt;\\LudoDBService</title>
<path fill="none" stroke="black" stroke-dasharray="1,5" d="M652.962,-777.825C608.829,-782.255 548.249,-788.336 503.326,-792.845"/>
<polygon fill="none" stroke="black" points="502.729,-789.387 493.128,-793.868 503.428,-796.352 502.729,-789.387"/>
</g>
<!-- \\LudoDBRegistry -->
<g id="node24" class="node"><title>\\LudoDBRegistry</title>
<g id="a_node24"><a xlink:href="LudoDBRegistry.html" xlink:title="LudoDBRegistry" target="_parent">
<polygon fill="none" stroke="black" points="767.5,-412 656.5,-412 656.5,-376 767.5,-376 767.5,-412"/>
<text text-anchor="middle" x="712" y="-391.2" font-family="Courier,monospace" font-size="11.00">LudoDBRegistry</text>
</a>
</g>
</g>
<!-- \\LudoDBRequestHandler -->
<g id="node25" class="node"><title>\\LudoDBRequestHandler</title>
<g id="a_node25"><a xlink:href="LudoDBRequestHandler.html" xlink:title="LudoDBRequestHandler" target="_parent">
<polygon fill="none" stroke="black" points="788,-358 636,-358 636,-322 788,-322 788,-358"/>
<text text-anchor="middle" x="712" y="-337.2" font-family="Courier,monospace" font-size="11.00">LudoDBRequestHandler</text>
</a>
</g>
</g>
<!-- \\LudoDBSql -->
<g id="node26" class="node"><title>\\LudoDBSql</title>
<g id="a_node26"><a xlink:href="LudoDBSQL.html" xlink:title="LudoDBSql" target="_parent">
<polygon fill="none" stroke="black" points="750.5,-304 673.5,-304 673.5,-268 750.5,-268 750.5,-304"/>
<text text-anchor="middle" x="712" y="-283.2" font-family="Courier,monospace" font-size="11.00">LudoDBSql</text>
</a>
</g>
</g>
<!-- \\LudoDBServiceRegistry -->
<g id="node27" class="node"><title>\\LudoDBServiceRegistry</title>
<g id="a_node27"><a xlink:href="LudoDBServiceRegistry.html" xlink:title="LudoDBServiceRegistry" target="_parent">
<polygon fill="none" stroke="black" points="791,-250 633,-250 633,-214 791,-214 791,-250"/>
<text text-anchor="middle" x="712" y="-229.2" font-family="Courier,monospace" font-size="11.00">LudoDBServiceRegistry</text>
</a>
</g>
</g>
<!-- \\LudoDBTreeCollection -->
<g id="node28" class="node"><title>\\LudoDBTreeCollection</title>
<g id="a_node28"><a xlink:href="LudoDBTreeCollection.html" xlink:title="«abstract»&lt;br/&gt;LudoDBTreeCollection" target="_parent">
<polygon fill="none" stroke="black" points="788.5,-1060 635.5,-1060 635.5,-1024 788.5,-1024 788.5,-1060"/>
<text text-anchor="start" x="678" y="-1045.7" font-family="Courier,monospace" font-size="11.00">«abstract»</text>
<text text-anchor="start" x="644" y="-1034.7" font-family="Courier,monospace" font-size="11.00">LudoDBTreeCollection</text>
</a>
</g>
</g>
<!-- \\LudoDBTreeCollection&#45;&gt;\\LudoDBCollection -->
<g id="edge18" class="edge"><title>\\LudoDBTreeCollection&#45;&gt;\\LudoDBCollection</title>
<path fill="none" stroke="black" d="M635.353,-1026.81C597.408,-1019.2 551.678,-1010.02 514.22,-1002.5"/>
<polygon fill="none" stroke="black" points="514.881,-999.061 504.387,-1000.52 513.503,-1005.92 514.881,-999.061"/>
</g>
<!-- \\LudoDBUtility -->
<g id="node29" class="node"><title>\\LudoDBUtility</title>
<g id="a_node29"><a xlink:href="LudoDBUtility.html" xlink:title="LudoDBUtility" target="_parent">
<polygon fill="none" stroke="black" points="764,-142 660,-142 660,-106 764,-106 764,-142"/>
<text text-anchor="middle" x="712" y="-121.2" font-family="Courier,monospace" font-size="11.00">LudoDBUtility</text>
</a>
</g>
</g>
<!-- \\LudoJS -->
<g id="node30" class="node"><title>\\LudoJS</title>
<g id="a_node30"><a xlink:href="LudoJS.html" xlink:title="LudoJS" target="_parent">
<polygon fill="none" stroke="black" points="740.5,-844 683.5,-844 683.5,-808 740.5,-808 740.5,-844"/>
<text text-anchor="middle" x="712" y="-823.2" font-family="Courier,monospace" font-size="11.00">LudoJS</text>
</a>
</g>
</g>
<!-- \\LudoJS&#45;&gt;\\LudoDBService -->
<g id="edge24" class="edge"><title>\\LudoJS&#45;&gt;\\LudoDBService</title>
<path fill="none" stroke="black" stroke-dasharray="1,5" d="M683.476,-823.237C641.373,-819.011 559.911,-810.835 503.312,-805.154"/>
<polygon fill="none" stroke="black" points="503.348,-801.64 493.048,-804.124 502.648,-808.605 503.348,-801.64"/>
</g>
</g>
</svg>
