<?xml version="1.0" encoding="UTF-8" standalone="no"?>
<!DOCTYPE svg PUBLIC "-//W3C//DTD SVG 1.1//EN"
 "http://www.w3.org/Graphics/SVG/1.1/DTD/svg11.dtd">
<!-- Generated by graphviz version 2.30.1 (20130214.1330)
 -->
<!-- Title: G Pages: 1 -->
<svg width="866pt" height="1320pt"
 viewBox="0.00 0.00 866.00 1320.00" xmlns="http://www.w3.org/2000/svg" xmlns:xlink="http://www.w3.org/1999/xlink">
<g id="graph0" class="graph" transform="scale(1 1) rotate(0) translate(4 1316)">
<title>G</title>
<polygon fill="white" stroke="white" points="-4,5 -4,-1316 863,-1316 863,5 -4,5"/>
<g id="clust1" class="cluster"><title>cluster_global</title>
<path fill="none" stroke="gray" d="M20,-44C20,-44 838,-44 838,-44 844,-44 850,-50 850,-56 850,-56 850,-1292 850,-1292 850,-1298 844,-1304 838,-1304 838,-1304 20,-1304 20,-1304 14,-1304 8,-1298 8,-1292 8,-1292 8,-56 8,-56 8,-50 14,-44 20,-44"/>
<text text-anchor="middle" x="429" y="-1291.2" font-family="Times New Roman,serif" font-size="11.00" fill="gray">global</text>
</g>
<!-- \\LudoDB -->
<g id="node1" class="node"><title>\\LudoDB</title>
<g id="a_node1"><a xlink:href="LudoDB.html" xlink:title="LudoDB" target="_parent">
<polygon fill="none" stroke="black" points="469.5,-1114 412.5,-1114 412.5,-1078 469.5,-1078 469.5,-1114"/>
<text text-anchor="middle" x="441" y="-1093.2" font-family="Courier,monospace" font-size="11.00">LudoDB</text>
</a>
</g>
</g>
<!-- \\LudoDBCache -->
<g id="node2" class="node"><title>\\LudoDBCache</title>
<g id="a_node2"><a xlink:href="LudoDBCache.html" xlink:title="LudoDBCache" target="_parent">
<polygon fill="none" stroke="black" points="486.5,-1276 395.5,-1276 395.5,-1240 486.5,-1240 486.5,-1276"/>
<text text-anchor="middle" x="441" y="-1255.2" font-family="Courier,monospace" font-size="11.00">LudoDBCache</text>
</a>
</g>
</g>
<!-- \\LudoDBModel -->
<g id="node19" class="node"><title>\\LudoDBModel</title>
<g id="a_node19"><a xlink:href="LudoDBModel.html" xlink:title="«abstract»&lt;br/&gt;LudoDBModel" target="_parent">
<polygon fill="none" stroke="black" points="290,-1249 198,-1249 198,-1213 290,-1213 290,-1249"/>
<text text-anchor="start" x="210" y="-1234.7" font-family="Courier,monospace" font-size="11.00">«abstract»</text>
<text text-anchor="start" x="206.5" y="-1223.7" font-family="Courier,monospace" font-size="11.00">LudoDBModel</text>
</a>
</g>
</g>
<!-- \\LudoDBCache&#45;&gt;\\LudoDBModel -->
<g id="edge1" class="edge"><title>\\LudoDBCache&#45;&gt;\\LudoDBModel</title>
<path fill="none" stroke="black" d="M395.263,-1251.81C366.977,-1247.89 330.212,-1242.8 300.128,-1238.63"/>
<polygon fill="none" stroke="black" points="300.59,-1235.16 290.204,-1237.26 299.629,-1242.1 300.59,-1235.16"/>
</g>
<!-- \\LudoDBCollection -->
<g id="node3" class="node"><title>\\LudoDBCollection</title>
<g id="a_node3"><a xlink:href="LudoDBCollection.html" xlink:title="«abstract»&lt;br/&gt;LudoDBCollection" target="_parent">
<polygon fill="none" stroke="black" points="504,-1168 378,-1168 378,-1132 504,-1132 504,-1168"/>
<text text-anchor="start" x="407" y="-1153.7" font-family="Courier,monospace" font-size="11.00">«abstract»</text>
<text text-anchor="start" x="386.5" y="-1142.7" font-family="Courier,monospace" font-size="11.00">LudoDBCollection</text>
</a>
</g>
</g>
<!-- \\LudoDBIterator -->
<g id="node18" class="node"><title>\\LudoDBIterator</title>
<g id="a_node18"><a xlink:href="LudoDBIterator.html" xlink:title="LudoDBIterator" target="_parent">
<polygon fill="none" stroke="black" points="299.5,-1168 188.5,-1168 188.5,-1132 299.5,-1132 299.5,-1168"/>
<text text-anchor="middle" x="244" y="-1147.2" font-family="Courier,monospace" font-size="11.00">LudoDBIterator</text>
</a>
</g>
</g>
<!-- \\LudoDBCollection&#45;&gt;\\LudoDBIterator -->
<g id="edge2" class="edge"><title>\\LudoDBCollection&#45;&gt;\\LudoDBIterator</title>
<path fill="none" stroke="black" d="M377.765,-1150C356.115,-1150 331.784,-1150 309.922,-1150"/>
<polygon fill="none" stroke="black" points="309.741,-1146.5 299.741,-1150 309.741,-1153.5 309.741,-1146.5"/>
</g>
<!-- \\LudoDBCollectionConfigParser -->
<g id="node4" class="node"><title>\\LudoDBCollectionConfigParser</title>
<g id="a_node4"><a xlink:href="LudoDBCollectionConfigParser.html" xlink:title="LudoDBCollectionConfigParser" target="_parent">
<polygon fill="none" stroke="black" points="815,-1276 609,-1276 609,-1240 815,-1240 815,-1276"/>
<text text-anchor="middle" x="712" y="-1255.2" font-family="Courier,monospace" font-size="11.00">LudoDBCollectionConfigParser</text>
</a>
</g>
</g>
<!-- \\LudoDBConfigParser -->
<g id="node5" class="node"><title>\\LudoDBConfigParser</title>
<g id="a_node5"><a xlink:href="LudoDBConfigParser.html" xlink:title="LudoDBConfigParser" target="_parent">
<polygon fill="none" stroke="black" points="510,-1222 372,-1222 372,-1186 510,-1186 510,-1222"/>
<text text-anchor="middle" x="441" y="-1201.2" font-family="Courier,monospace" font-size="11.00">LudoDBConfigParser</text>
</a>
</g>
</g>
<!-- \\LudoDBCollectionConfigParser&#45;&gt;\\LudoDBConfigParser -->
<g id="edge3" class="edge"><title>\\LudoDBCollectionConfigParser&#45;&gt;\\LudoDBConfigParser</title>
<path fill="none" stroke="black" d="M621.053,-1239.94C588.39,-1233.39 551.775,-1226.04 520.207,-1219.7"/>
<polygon fill="none" stroke="black" points="520.64,-1216.22 510.147,-1217.68 519.262,-1223.08 520.64,-1216.22"/>
</g>
<!-- \\LudoDBException -->
<g id="node6" class="node"><title>\\LudoDBException</title>
<g id="a_node6"><a xlink:href="LudoDBExceptions.html" xlink:title="LudoDBException" target="_parent">
<polygon fill="none" stroke="black" points="500,-628 382,-628 382,-592 500,-592 500,-628"/>
<text text-anchor="middle" x="441" y="-607.2" font-family="Courier,monospace" font-size="11.00">LudoDBException</text>
</a>
</g>
</g>
<!-- \\Exception -->
<g id="node34" class="node"><title>\\Exception</title>
<ellipse fill="none" stroke="black" cx="244" cy="-18" rx="50.0912" ry="18"/>
<text text-anchor="middle" x="244" y="-14.3" font-family="Times New Roman,serif" font-size="14.00" fill="gray">\Exception</text>
</g>
<!-- \\LudoDBException&#45;&gt;\\Exception -->
<g id="edge4" class="edge"><title>\\LudoDBException&#45;&gt;\\Exception</title>
<path fill="none" stroke="black" d="M437.795,-591.932C426.815,-504.602 375.541,-126.903 300,-40 298.071,-37.7806 295.886,-35.7826 293.528,-33.9841"/>
<polygon fill="none" stroke="black" points="295.287,-30.9561 284.956,-28.6066 291.567,-36.8858 295.287,-30.9561"/>
</g>
<!-- \\LudoDBClassNotFoundException -->
<g id="node7" class="node"><title>\\LudoDBClassNotFoundException</title>
<g id="a_node7"><a xlink:href="LudoDBExceptions.html" xlink:title="LudoDBClassNotFoundException" target="_parent">
<polygon fill="none" stroke="black" points="815,-520 609,-520 609,-484 815,-484 815,-520"/>
<text text-anchor="middle" x="712" y="-499.2" font-family="Courier,monospace" font-size="11.00">LudoDBClassNotFoundException</text>
</a>
</g>
</g>
<!-- \\LudoDBClassNotFoundException&#45;&gt;\\LudoDBException -->
<g id="edge5" class="edge"><title>\\LudoDBClassNotFoundException&#45;&gt;\\LudoDBException</title>
<path fill="none" stroke="black" d="M609.407,-520.051C600.026,-522.677 590.762,-525.648 582,-529 543.662,-543.668 503.459,-567.995 476.022,-586.168"/>
<polygon fill="none" stroke="black" points="473.934,-583.354 467.58,-591.832 477.834,-589.167 473.934,-583.354"/>
</g>
<!-- \\LudoDBObjectNotFoundException -->
<g id="node8" class="node"><title>\\LudoDBObjectNotFoundException</title>
<g id="a_node8"><a xlink:href="LudoDBExceptions.html" xlink:title="LudoDBObjectNotFoundException" target="_parent">
<polygon fill="none" stroke="black" points="818,-250 606,-250 606,-214 818,-214 818,-250"/>
<text text-anchor="middle" x="712" y="-229.2" font-family="Courier,monospace" font-size="11.00">LudoDBObjectNotFoundException</text>
</a>
</g>
</g>
<!-- \\LudoDBObjectNotFoundException&#45;&gt;\\LudoDBException -->
<g id="edge6" class="edge"><title>\\LudoDBObjectNotFoundException&#45;&gt;\\LudoDBException</title>
<path fill="none" stroke="black" d="M605.747,-244.513C597.173,-248.288 589.095,-253.039 582,-259 480.416,-344.354 451.961,-513.91 444.489,-581.357"/>
<polygon fill="none" stroke="black" points="440.973,-581.334 443.428,-591.64 447.936,-582.053 440.973,-581.334"/>
</g>
<!-- \\LudoDBConnectionException -->
<g id="node9" class="node"><title>\\LudoDBConnectionException</title>
<g id="a_node9"><a xlink:href="LudoDBExceptions.html" xlink:title="LudoDBConnectionException" target="_parent">
<polygon fill="none" stroke="black" points="804.5,-844 619.5,-844 619.5,-808 804.5,-808 804.5,-844"/>
<text text-anchor="middle" x="712" y="-823.2" font-family="Courier,monospace" font-size="11.00">LudoDBConnectionException</text>
</a>
</g>
</g>
<!-- \\LudoDBConnectionException&#45;&gt;\\LudoDBException -->
<g id="edge7" class="edge"><title>\\LudoDBConnectionException&#45;&gt;\\LudoDBException</title>
<path fill="none" stroke="black" d="M619.255,-815.479C606.127,-811.551 593.271,-806.221 582,-799 519.001,-758.639 474.465,-679.234 454.235,-637.35"/>
<polygon fill="none" stroke="black" points="457.388,-635.83 449.953,-628.282 451.058,-638.819 457.388,-635.83"/>
</g>
<!-- \\LudoDBInvalidArgumentsException -->
<g id="node10" class="node"><title>\\LudoDBInvalidArgumentsException</title>
<g id="a_node10"><a xlink:href="LudoDBExceptions.html" xlink:title="LudoDBInvalidArgumentsException" target="_parent">
<polygon fill="none" stroke="black" points="825,-790 599,-790 599,-754 825,-754 825,-790"/>
<text text-anchor="middle" x="712" y="-769.2" font-family="Courier,monospace" font-size="11.00">LudoDBInvalidArgumentsException</text>
</a>
</g>
</g>
<!-- \\LudoDBInvalidArgumentsException&#45;&gt;\\LudoDBException -->
<g id="edge8" class="edge"><title>\\LudoDBInvalidArgumentsException&#45;&gt;\\LudoDBException</title>
<path fill="none" stroke="black" d="M602.076,-753.904C595.126,-751.322 588.37,-748.372 582,-745 531.262,-718.147 486.168,-667.418 461.6,-636.371"/>
<polygon fill="none" stroke="black" points="464.128,-633.919 455.227,-628.172 458.601,-638.215 464.128,-633.919"/>
</g>
<!-- \\LudoDBUnauthorizedException -->
<g id="node11" class="node"><title>\\LudoDBUnauthorizedException</title>
<g id="a_node11"><a xlink:href="LudoDBExceptions.html" xlink:title="LudoDBUnauthorizedException" target="_parent">
<polygon fill="none" stroke="black" points="811.5,-736 612.5,-736 612.5,-700 811.5,-700 811.5,-736"/>
<text text-anchor="middle" x="712" y="-715.2" font-family="Courier,monospace" font-size="11.00">LudoDBUnauthorizedException</text>
</a>
</g>
</g>
<!-- \\LudoDBUnauthorizedException&#45;&gt;\\LudoDBException -->
<g id="edge9" class="edge"><title>\\LudoDBUnauthorizedException&#45;&gt;\\LudoDBException</title>
<path fill="none" stroke="black" d="M612.499,-700.802C602.066,-697.971 591.724,-694.72 582,-691 543.662,-676.332 503.459,-652.005 476.022,-633.832"/>
<polygon fill="none" stroke="black" points="477.834,-630.833 467.58,-628.168 473.934,-636.646 477.834,-630.833"/>
</g>
<!-- \\LudoDBServiceNotImplementedException -->
<g id="node12" class="node"><title>\\LudoDBServiceNotImplementedException</title>
<g id="a_node12"><a xlink:href="LudoDBExceptions.html" xlink:title="LudoDBServiceNotImplementedException" target="_parent">
<polygon fill="none" stroke="black" points="842,-682 582,-682 582,-646 842,-646 842,-682"/>
<text text-anchor="middle" x="712" y="-661.2" font-family="Courier,monospace" font-size="11.00">LudoDBServiceNotImplementedException</text>
</a>
</g>
</g>
<!-- \\LudoDBServiceNotImplementedException&#45;&gt;\\LudoDBException -->
<g id="edge10" class="edge"><title>\\LudoDBServiceNotImplementedException&#45;&gt;\\LudoDBException</title>
<path fill="none" stroke="black" d="M621.053,-645.944C584.926,-638.692 543.965,-630.469 510.347,-623.72"/>
<polygon fill="none" stroke="black" points="510.656,-620.212 500.163,-621.676 509.278,-627.076 510.656,-620.212"/>
</g>
<!-- \\LudoDBInvalidServiceException -->
<g id="node13" class="node"><title>\\LudoDBInvalidServiceException</title>
<g id="a_node13"><a xlink:href="LudoDBExceptions.html" xlink:title="LudoDBInvalidServiceException" target="_parent">
<polygon fill="none" stroke="black" points="818,-88 606,-88 606,-52 818,-52 818,-88"/>
<text text-anchor="middle" x="712" y="-67.2" font-family="Courier,monospace" font-size="11.00">LudoDBInvalidServiceException</text>
</a>
</g>
</g>
<!-- \\LudoDBInvalidServiceException&#45;&gt;\\Exception -->
<g id="edge11" class="edge"><title>\\LudoDBInvalidServiceException&#45;&gt;\\Exception</title>
<path fill="none" stroke="black" d="M605.839,-58.2653C511.875,-47.7801 377.736,-32.8117 302.272,-24.3909"/>
<polygon fill="none" stroke="black" points="302.35,-20.878 292.024,-23.2473 301.574,-27.8348 302.35,-20.878"/>
</g>
<!-- \\LudoDBInvalidConfigException -->
<g id="node14" class="node"><title>\\LudoDBInvalidConfigException</title>
<g id="a_node14"><a xlink:href="LudoDBExceptions.html" xlink:title="LudoDBInvalidConfigException" target="_parent">
<polygon fill="none" stroke="black" points="815,-628 609,-628 609,-592 815,-592 815,-628"/>
<text text-anchor="middle" x="712" y="-607.2" font-family="Courier,monospace" font-size="11.00">LudoDBInvalidConfigException</text>
</a>
</g>
</g>
<!-- \\LudoDBInvalidConfigException&#45;&gt;\\LudoDBException -->
<g id="edge12" class="edge"><title>\\LudoDBInvalidConfigException&#45;&gt;\\LudoDBException</title>
<path fill="none" stroke="black" d="M608.919,-610C576.08,-610 540.498,-610 510.657,-610"/>
<polygon fill="none" stroke="black" points="510.355,-606.5 500.355,-610 510.355,-613.5 510.355,-606.5"/>
</g>
<!-- \\LudoDBInvalidModelDataException -->
<g id="node15" class="node"><title>\\LudoDBInvalidModelDataException</title>
<g id="a_node15"><a xlink:href="LudoDBExceptions.html" xlink:title="LudoDBInvalidModelDataException" target="_parent">
<polygon fill="none" stroke="black" points="825,-574 599,-574 599,-538 825,-538 825,-574"/>
<text text-anchor="middle" x="712" y="-553.2" font-family="Courier,monospace" font-size="11.00">LudoDBInvalidModelDataException</text>
</a>
</g>
</g>
<!-- \\LudoDBInvalidModelDataException&#45;&gt;\\LudoDBException -->
<g id="edge13" class="edge"><title>\\LudoDBInvalidModelDataException&#45;&gt;\\LudoDBException</title>
<path fill="none" stroke="black" d="M621.053,-574.056C584.926,-581.308 543.965,-589.531 510.347,-596.28"/>
<polygon fill="none" stroke="black" points="509.278,-592.924 500.163,-598.324 510.656,-599.788 509.278,-592.924"/>
</g>
<!-- \\LudoDBAdapter -->
<g id="node16" class="node"><title>\\LudoDBAdapter</title>
<g id="a_node16"><a xlink:href="LudoDBInterfaces.html" xlink:title="LudoDBAdapter" target="_parent">
<polygon fill="none" stroke="black" points="493,-1060 389,-1060 389,-1024 493,-1024 493,-1060"/>
<text text-anchor="middle" x="441" y="-1039.2" font-family="Courier,monospace" font-size="11.00">LudoDBAdapter</text>
</a>
</g>
</g>
<!-- \\LudoDBService -->
<g id="node17" class="node"><title>\\LudoDBService</title>
<g id="a_node17"><a xlink:href="LudoDBInterfaces.html" xlink:title="LudoDBService" target="_parent">
<polygon fill="none" stroke="black" points="493,-925 389,-925 389,-889 493,-889 493,-925"/>
<text text-anchor="middle" x="441" y="-904.2" font-family="Courier,monospace" font-size="11.00">LudoDBService</text>
</a>
</g>
</g>
<!-- \\LudoDBObject -->
<g id="node22" class="node"><title>\\LudoDBObject</title>
<g id="a_node22"><a xlink:href="LudoDBObject.html" xlink:title="«abstract»&lt;br/&gt;LudoDBObject" target="_parent">
<polygon fill="none" stroke="black" points="115.5,-1208 16.5,-1208 16.5,-1172 115.5,-1172 115.5,-1208"/>
<text text-anchor="start" x="32" y="-1193.7" font-family="Courier,monospace" font-size="11.00">«abstract»</text>
<text text-anchor="start" x="25" y="-1182.7" font-family="Courier,monospace" font-size="11.00">LudoDBObject</text>
</a>
</g>
</g>
<!-- \\LudoDBIterator&#45;&gt;\\LudoDBObject -->
<g id="edge14" class="edge"><title>\\LudoDBIterator&#45;&gt;\\LudoDBObject</title>
<path fill="none" stroke="black" d="M188.277,-1162.44C168.423,-1166.95 145.918,-1172.06 125.732,-1176.65"/>
<polygon fill="none" stroke="black" points="124.698,-1173.3 115.723,-1178.93 126.25,-1180.12 124.698,-1173.3"/>
</g>
<!-- \\Iterator -->
<g id="node35" class="node"><title>\\Iterator</title>
<ellipse fill="none" stroke="black" cx="66" cy="-18" rx="42.4939" ry="18"/>
<text text-anchor="middle" x="66" y="-14.3" font-family="Times New Roman,serif" font-size="14.00" fill="gray">\\Iterator</text>
</g>
<!-- \\LudoDBIterator&#45;&gt;\\Iterator -->
<g id="edge21" class="edge"><title>\\LudoDBIterator&#45;&gt;\\Iterator</title>
<path fill="none" stroke="black" stroke-dasharray="1,5" d="M243.304,-1131.71C245.111,-1002.22 250.235,-223.584 116,-40 114.246,-37.6006 112.168,-35.4577 109.876,-33.5445"/>
<polygon fill="none" stroke="black" points="111.668,-30.5327 101.409,-27.8863 107.779,-36.3527 111.668,-30.5327"/>
</g>
<!-- \\LudoDBModel&#45;&gt;\\LudoDBObject -->
<g id="edge15" class="edge"><title>\\LudoDBModel&#45;&gt;\\LudoDBObject</title>
<path fill="none" stroke="black" d="M197.676,-1220.44C175.663,-1215.31 148.95,-1209.09 125.427,-1203.61"/>
<polygon fill="none" stroke="black" points="126.097,-1200.17 115.564,-1201.31 124.509,-1206.99 126.097,-1200.17"/>
</g>
<!-- \\LudoDBMySqlI -->
<g id="node20" class="node"><title>\\LudoDBMySqlI</title>
<g id="a_node20"><a xlink:href="LudoDBMySqlI.html" xlink:title="LudoDBMySqlI" target="_parent">
<polygon fill="none" stroke="black" points="761,-1168 663,-1168 663,-1132 761,-1132 761,-1168"/>
<text text-anchor="middle" x="712" y="-1147.2" font-family="Courier,monospace" font-size="11.00">LudoDBMySqlI</text>
</a>
</g>
</g>
<!-- \\LudoDBMySqlI&#45;&gt;\\LudoDB -->
<g id="edge16" class="edge"><title>\\LudoDBMySqlI&#45;&gt;\\LudoDB</title>
<path fill="none" stroke="black" d="M662.908,-1140.35C610.393,-1129.8 527.402,-1113.14 479.494,-1103.53"/>
<polygon fill="none" stroke="black" points="480.034,-1100.07 469.541,-1101.53 478.657,-1106.93 480.034,-1100.07"/>
</g>
<!-- \\LudoDBMySqlI&#45;&gt;\\LudoDBAdapter -->
<g id="edge22" class="edge"><title>\\LudoDBMySqlI&#45;&gt;\\LudoDBAdapter</title>
<path fill="none" stroke="black" stroke-dasharray="1,5" d="M662.873,-1145.01C637.922,-1141.18 607.433,-1134.51 582,-1123 545.557,-1106.51 544.895,-1088.55 510,-1069 507.174,-1067.42 504.237,-1065.88 501.238,-1064.4"/>
<polygon fill="none" stroke="black" points="502.647,-1061.19 492.107,-1060.12 499.677,-1067.53 502.647,-1061.19"/>
</g>
<!-- \\LudoDBMysql -->
<g id="node21" class="node"><title>\\LudoDBMysql</title>
<g id="a_node21"><a xlink:href="LudoDBMysql.html" xlink:title="LudoDBMysql" target="_parent">
<polygon fill="none" stroke="black" points="757.5,-1114 666.5,-1114 666.5,-1078 757.5,-1078 757.5,-1114"/>
<text text-anchor="middle" x="712" y="-1093.2" font-family="Courier,monospace" font-size="11.00">LudoDBMysql</text>
</a>
</g>
</g>
<!-- \\LudoDBMysql&#45;&gt;\\LudoDB -->
<g id="edge17" class="edge"><title>\\LudoDBMysql&#45;&gt;\\LudoDB</title>
<path fill="none" stroke="black" d="M666.278,-1096C614.084,-1096 528.694,-1096 479.713,-1096"/>
<polygon fill="none" stroke="black" points="479.547,-1092.5 469.547,-1096 479.547,-1099.5 479.547,-1092.5"/>
</g>
<!-- \\LudoDBMysql&#45;&gt;\\LudoDBAdapter -->
<g id="edge23" class="edge"><title>\\LudoDBMysql&#45;&gt;\\LudoDBAdapter</title>
<path fill="none" stroke="black" stroke-dasharray="1,5" d="M666.278,-1087.02C621.692,-1078.07 552.883,-1064.26 503.238,-1054.29"/>
<polygon fill="none" stroke="black" points="503.757,-1050.83 493.264,-1052.29 502.38,-1057.69 503.757,-1050.83"/>
</g>
<!-- \\LudoDBPDO -->
<g id="node23" class="node"><title>\\LudoDBPDO</title>
<g id="a_node23"><a xlink:href="LudoDBPDO.html" xlink:title="LudoDBPDO" target="_parent">
<polygon fill="none" stroke="black" points="750.5,-1060 673.5,-1060 673.5,-1024 750.5,-1024 750.5,-1060"/>
<text text-anchor="middle" x="712" y="-1039.2" font-family="Courier,monospace" font-size="11.00">LudoDBPDO</text>
</a>
</g>
</g>
<!-- \\LudoDBPDO&#45;&gt;\\LudoDB -->
<g id="edge18" class="edge"><title>\\LudoDBPDO&#45;&gt;\\LudoDB</title>
<path fill="none" stroke="black" d="M673.313,-1049.57C622.044,-1059.86 530.85,-1078.16 479.617,-1088.45"/>
<polygon fill="none" stroke="black" points="478.738,-1085.06 469.623,-1090.45 480.116,-1091.92 478.738,-1085.06"/>
</g>
<!-- \\LudoDBPDO&#45;&gt;\\LudoDBAdapter -->
<g id="edge24" class="edge"><title>\\LudoDBPDO&#45;&gt;\\LudoDBAdapter</title>
<path fill="none" stroke="black" stroke-dasharray="1,5" d="M673.313,-1042C629.257,-1042 555.72,-1042 503.391,-1042"/>
<polygon fill="none" stroke="black" points="503.223,-1038.5 493.223,-1042 503.223,-1045.5 503.223,-1038.5"/>
</g>
<!-- \\LudoDBPDOOracle -->
<g id="node24" class="node"><title>\\LudoDBPDOOracle</title>
<g id="a_node24"><a xlink:href="LudoDBPDOOracle.html" xlink:title="LudoDBPDOOracle" target="_parent">
<polygon fill="none" stroke="black" points="771,-1006 653,-1006 653,-970 771,-970 771,-1006"/>
<text text-anchor="middle" x="712" y="-985.2" font-family="Courier,monospace" font-size="11.00">LudoDBPDOOracle</text>
</a>
</g>
</g>
<!-- \\LudoDBPDOOracle&#45;&gt;\\LudoDB -->
<g id="edge19" class="edge"><title>\\LudoDBPDOOracle&#45;&gt;\\LudoDB</title>
<path fill="none" stroke="black" d="M652.794,-994.648C630.012,-998.654 604.097,-1005 582,-1015 545.557,-1031.49 544.895,-1049.45 510,-1069 500.343,-1074.41 489.38,-1079.27 479.121,-1083.32"/>
<polygon fill="none" stroke="black" points="477.67,-1080.13 469.564,-1086.95 480.156,-1086.67 477.67,-1080.13"/>
</g>
<!-- \\LudoDBPDOOracle&#45;&gt;\\LudoDBAdapter -->
<g id="edge25" class="edge"><title>\\LudoDBPDOOracle&#45;&gt;\\LudoDBAdapter</title>
<path fill="none" stroke="black" stroke-dasharray="1,5" d="M652.962,-999.651C608.736,-1008.53 547.994,-1020.72 503.043,-1029.75"/>
<polygon fill="none" stroke="black" points="502.244,-1026.34 493.128,-1031.74 503.622,-1033.2 502.244,-1026.34"/>
</g>
<!-- \\LudoDBProfiling -->
<g id="node25" class="node"><title>\\LudoDBProfiling</title>
<g id="a_node25"><a xlink:href="LudoDBProfiling.html" xlink:title="LudoDBProfiling" target="_parent">
<polygon fill="none" stroke="black" points="771,-952 653,-952 653,-916 771,-916 771,-952"/>
<text text-anchor="middle" x="712" y="-931.2" font-family="Courier,monospace" font-size="11.00">LudoDBProfiling</text>
</a>
</g>
</g>
<!-- \\LudoDBProfiling&#45;&gt;\\LudoDBService -->
<g id="edge26" class="edge"><title>\\LudoDBProfiling&#45;&gt;\\LudoDBService</title>
<path fill="none" stroke="black" stroke-dasharray="1,5" d="M652.962,-928.175C608.829,-923.745 548.249,-917.664 503.326,-913.155"/>
<polygon fill="none" stroke="black" points="503.428,-909.648 493.128,-912.132 502.729,-916.613 503.428,-909.648"/>
</g>
<!-- \\LudoDBRegistry -->
<g id="node26" class="node"><title>\\LudoDBRegistry</title>
<g id="a_node26"><a xlink:href="LudoDBRegistry.html" xlink:title="LudoDBRegistry" target="_parent">
<polygon fill="none" stroke="black" points="767.5,-466 656.5,-466 656.5,-430 767.5,-430 767.5,-466"/>
<text text-anchor="middle" x="712" y="-445.2" font-family="Courier,monospace" font-size="11.00">LudoDBRegistry</text>
</a>
</g>
</g>
<!-- \\LudoDBRequestHandler -->
<g id="node27" class="node"><title>\\LudoDBRequestHandler</title>
<g id="a_node27"><a xlink:href="LudoDBRequestHandler.html" xlink:title="LudoDBRequestHandler" target="_parent">
<polygon fill="none" stroke="black" points="788,-412 636,-412 636,-376 788,-376 788,-412"/>
<text text-anchor="middle" x="712" y="-391.2" font-family="Courier,monospace" font-size="11.00">LudoDBRequestHandler</text>
</a>
</g>
</g>
<!-- \\LudoDBSql -->
<g id="node28" class="node"><title>\\LudoDBSql</title>
<g id="a_node28"><a xlink:href="LudoDBSQL.html" xlink:title="LudoDBSql" target="_parent">
<polygon fill="none" stroke="black" points="750.5,-358 673.5,-358 673.5,-322 750.5,-322 750.5,-358"/>
<text text-anchor="middle" x="712" y="-337.2" font-family="Courier,monospace" font-size="11.00">LudoDBSql</text>
</a>
</g>
</g>
<!-- \\LudoDBServiceRegistry -->
<g id="node29" class="node"><title>\\LudoDBServiceRegistry</title>
<g id="a_node29"><a xlink:href="LudoDBServiceRegistry.html" xlink:title="LudoDBServiceRegistry" target="_parent">
<polygon fill="none" stroke="black" points="791,-304 633,-304 633,-268 791,-268 791,-304"/>
<text text-anchor="middle" x="712" y="-283.2" font-family="Courier,monospace" font-size="11.00">LudoDBServiceRegistry</text>
</a>
</g>
</g>
<!-- \\LudoDBTreeCollection -->
<g id="node30" class="node"><title>\\LudoDBTreeCollection</title>
<g id="a_node30"><a xlink:href="LudoDBTreeCollection.html" xlink:title="«abstract»&lt;br/&gt;LudoDBTreeCollection" target="_parent">
<polygon fill="none" stroke="black" points="788.5,-1222 635.5,-1222 635.5,-1186 788.5,-1186 788.5,-1222"/>
<text text-anchor="start" x="678" y="-1207.7" font-family="Courier,monospace" font-size="11.00">«abstract»</text>
<text text-anchor="start" x="644" y="-1196.7" font-family="Courier,monospace" font-size="11.00">LudoDBTreeCollection</text>
</a>
</g>
</g>
<!-- \\LudoDBTreeCollection&#45;&gt;\\LudoDBCollection -->
<g id="edge20" class="edge"><title>\\LudoDBTreeCollection&#45;&gt;\\LudoDBCollection</title>
<path fill="none" stroke="black" d="M635.353,-1188.81C597.408,-1181.2 551.678,-1172.02 514.22,-1164.5"/>
<polygon fill="none" stroke="black" points="514.881,-1161.06 504.387,-1162.52 513.503,-1167.92 514.881,-1161.06"/>
</g>
<!-- \\LudoDBUtility -->
<g id="node31" class="node"><title>\\LudoDBUtility</title>
<g id="a_node31"><a xlink:href="LudoDBUtility.html" xlink:title="LudoDBUtility" target="_parent">
<polygon fill="none" stroke="black" points="764,-196 660,-196 660,-160 764,-160 764,-196"/>
<text text-anchor="middle" x="712" y="-175.2" font-family="Courier,monospace" font-size="11.00">LudoDBUtility</text>
</a>
</g>
</g>
<!-- \\LudoDBValidator -->
<g id="node32" class="node"><title>\\LudoDBValidator</title>
<g id="a_node32"><a xlink:href="LudoDBValidator.html" xlink:title="LudoDBValidator" target="_parent">
<polygon fill="none" stroke="black" points="771,-142 653,-142 653,-106 771,-106 771,-142"/>
<text text-anchor="middle" x="712" y="-121.2" font-family="Courier,monospace" font-size="11.00">LudoDBValidator</text>
</a>
</g>
</g>
<!-- \\LudoJS -->
<g id="node33" class="node"><title>\\LudoJS</title>
<g id="a_node33"><a xlink:href="LudoJS.html" xlink:title="LudoJS" target="_parent">
<polygon fill="none" stroke="black" points="740.5,-898 683.5,-898 683.5,-862 740.5,-862 740.5,-898"/>
<text text-anchor="middle" x="712" y="-877.2" font-family="Courier,monospace" font-size="11.00">LudoJS</text>
</a>
</g>
</g>
<!-- \\LudoJS&#45;&gt;\\LudoDBService -->
<g id="edge27" class="edge"><title>\\LudoJS&#45;&gt;\\LudoDBService</title>
<path fill="none" stroke="black" stroke-dasharray="1,5" d="M683.476,-882.763C641.373,-886.989 559.911,-895.165 503.312,-900.846"/>
<polygon fill="none" stroke="black" points="502.648,-897.395 493.048,-901.876 503.348,-904.36 502.648,-897.395"/>
</g>
</g>
</svg>
